<svg xmlns="http://www.w3.org/2000/svg" enable-background="new 0 0 16 16" viewBox="0 0 16 16"><g display="none"><polyline fill="#0C0E11" stroke="#000" stroke-linecap="round" stroke-linejoin="round" stroke-miterlimit="10" points="12.8 10.7 15.5 8 12.8 5.3"/><polyline fill="none" stroke="#000" stroke-linecap="round" stroke-linejoin="round" stroke-miterlimit="10" points="3.2 10.7 .5 8 3.2 5.3"/><line x1=".5" x2="9.5" y1="8" y2="8" fill="none" stroke="#000" stroke-linecap="round" stroke-linejoin="round" stroke-miterlimit="10"/><line x1="11.5" x2="15.5" y1="8" y2="8" fill="none" stroke="#000" stroke-linecap="round" stroke-linejoin="round" stroke-miterlimit="10"/></g><path d="M15.9 7.6l-2.7-2.7c-.2-.2-.5-.2-.7 0s-.2.5 0 .7l1.9 1.9h-2.8C11.2 7.5 11 7.7 11 8s.2.5.5.5h2.8l-1.9 1.9c-.2.2-.2.5 0 .7.1.1.2.1.4.1s.3 0 .4-.1l2.7-2.7C16 8.2 16 7.8 15.9 7.6zM9.5 7.5H1.7l1.9-1.9c.2-.2.2-.5 0-.7s-.5-.2-.7 0L.1 7.6C0 7.8 0 8.2.1 8.4l2.7 2.7c.1.1.2.1.4.1s.3 0 .4-.1c.2-.2.2-.5 0-.7L1.7 8.5h7.8C9.8 8.5 10 8.3 10 8S9.8 7.5 9.5 7.5z"/></svg>