<svg xmlns="http://www.w3.org/2000/svg" fill-rule="evenodd" stroke-linejoin="round" stroke-miterlimit="2" clip-rule="evenodd" viewBox="0 0 25 24"><g transform="translate(-39.91 -40)"><rect width="24" height="24" x="40" y="40" fill="none"/><path fill="#0C0E11" d="M10.1,12L10.1,16C10.1,16.925 10.634,17.822 11.65,18.515C12.858,19.339 14.801,19.9 17,19.9C19.199,19.9 21.142,19.339 22.35,18.515C23.366,17.822 23.9,16.925 23.9,16L23.9,12C23.9,11.503 23.497,11.1 23,11.1C22.503,11.1 22.1,11.503 22.1,12L22.1,16C22.1,16.401 21.776,16.728 21.335,17.028C20.359,17.694 18.777,18.1 17,18.1C15.223,18.1 13.641,17.694 12.665,17.028C12.224,16.728 11.9,16.401 11.9,16C11.9,16 11.9,12 11.9,12C11.9,11.503 11.497,11.1 11,11.1C10.503,11.1 10.1,11.503 10.1,12Z" transform="translate(39 38.52)"/><path fill="#0C0E11" d="M10.1,16L10.1,20C10.1,20.925 10.634,21.822 11.65,22.515C12.858,23.339 14.801,23.9 17,23.9C19.199,23.9 21.142,23.339 22.35,22.515C23.366,21.822 23.9,20.925 23.9,20L23.9,16C23.9,15.503 23.497,15.1 23,15.1C22.503,15.1 22.1,15.503 22.1,16L22.1,20C22.1,20.401 21.776,20.728 21.335,21.028C20.359,21.694 18.777,22.1 17,22.1C15.223,22.1 13.641,21.694 12.665,21.028C12.224,20.728 11.9,20.401 11.9,20C11.9,20 11.9,16 11.9,16C11.9,15.503 11.497,15.1 11,15.1C10.503,15.1 10.1,15.503 10.1,16Z" transform="translate(39 38.52)"/><path fill="#0C0E11" d="M17,8.1C14.802,8.1 12.859,8.661 11.651,9.485C10.635,10.178 10.1,11.075 10.1,12C10.1,12.925 10.635,13.822 11.651,14.515C12.859,15.339 14.802,15.9 17,15.9C19.198,15.9 21.141,15.339 22.349,14.515C23.365,13.822 23.9,12.925 23.9,12C23.9,11.075 23.365,10.178 22.349,9.485C21.141,8.661 19.198,8.1 17,8.1ZM17,9.9C18.776,9.9 20.358,10.307 21.335,10.972C21.776,11.273 22.1,11.599 22.1,12C22.1,12.401 21.776,12.727 21.335,13.028C20.358,13.693 18.776,14.1 17,14.1C15.224,14.1 13.642,13.693 12.665,13.028C12.224,12.727 11.9,12.401 11.9,12C11.9,11.599 12.224,11.273 12.665,10.972C13.642,10.307 15.224,9.9 17,9.9Z" transform="translate(39 38.52)"/><path fill="#0C0E11" d="M10.1,12L10.1,16C10.1,16.756 10.449,17.484 11.127,18.103C11.928,18.835 13.236,19.429 14.827,19.713C15.316,19.8 15.783,19.474 15.871,18.985C15.958,18.495 15.631,18.028 15.142,17.941C14.128,17.76 13.253,17.438 12.636,17.008C12.211,16.713 11.9,16.392 11.9,16L11.9,12C11.9,11.503 11.497,11.1 11,11.1C10.503,11.1 10.1,11.503 10.1,12Z" transform="translate(31 33)"/><path fill="#0C0E11" d="M10.1 16L10.1 20C10.1 20.845 10.541 21.662 11.39 22.325 12.393 23.109 14.02 23.696 15.929 23.856 16.424 23.897 16.859 23.529 16.9 23.034 16.942 22.539 16.574 22.103 16.079 22.062 14.579 21.937 13.286 21.522 12.497 20.906 12.151 20.636 11.9 20.345 11.9 20L11.9 16C11.9 15.503 11.497 15.1 11 15.1 10.503 15.1 10.1 15.503 10.1 16zM16.067 14.061C14.572 13.934 13.282 13.519 12.496 12.904 12.15 12.634 11.9 12.344 11.9 12 11.9 11.599 12.224 11.273 12.665 10.972 13.642 10.307 15.224 9.9 17 9.9 18.776 9.9 20.358 10.307 21.335 10.972 21.776 11.273 22.1 11.599 22.1 12 22.1 12.497 22.503 12.9 23 12.9 23.497 12.9 23.9 12.497 23.9 12 23.9 11.075 23.365 10.178 22.349 9.485 21.141 8.661 19.198 8.1 17 8.1 14.802 8.1 12.859 8.661 11.651 9.485 10.635 10.178 10.1 11.075 10.1 12 10.1 12.844 10.54 13.66 11.387 14.322 12.388 15.105 14.012 15.693 15.915 15.854 16.41 15.896 16.846 15.529 16.888 15.034 16.93 14.539 16.562 14.103 16.067 14.061z" transform="translate(31 33)"/></g></svg>