<svg xmlns="http://www.w3.org/2000/svg" width="55.395" height="57.691" enable-background="new 0 0 55.395 57.691" viewBox="0 0 55.395 57.691"><path fill="none" stroke="#0C0E11" stroke-linecap="round" stroke-linejoin="round" stroke-miterlimit="10" stroke-width="3.692" d="M33.577,33.803c1.839,5.434,0.878,12.664-3.688,17.229c-6.419,6.42-16.815,6.418-23.231,0.002C0.243,44.619,0.24,34.221,6.66,27.802c4.578-4.575,11.743-5.604,17.184-3.752"/><path fill="none" stroke="#0C0E11" stroke-linecap="round" stroke-linejoin="round" stroke-miterlimit="10" stroke-width="3.692" d="M18.01 39.682c1.628 1.627 1.628 4.27 0 5.898-1.628 1.625-4.27 1.625-5.897-.002-1.627-1.627-1.627-4.27 0-5.896C13.741 38.055 16.382 38.055 18.01 39.682zM53.44 9.359c.406 2.838-.39 4.966-1.403 5.978-.981.981-3.402-.403-4.298.495-.806.803.148 3.655-.493 4.295-.966.969-3.188-.613-4.296.491-.651.651.164 3.642-.489 4.295-.594.595-3.327-.477-4.299.494-.933.935.141 3.663-.492 4.298-2.19 2.192-4.048 4.047-4.048 4.047M23.95 24.1c6.629-6.629 18.261-18.259 20.973-20.971 2.156-2.157 5.193-1.559 6.671 1.517"/><line x1="28.822" x2="51.594" y1="27.417" y2="4.646" fill="none" stroke="#0C0E11" stroke-linecap="round" stroke-linejoin="round" stroke-miterlimit="10" stroke-width="3.692"/></svg>