<svg xmlns="http://www.w3.org/2000/svg" viewBox="0 0 24 24"><g><path fill="#0C0E11" d="M19.21,6.51a1,1,0,0,0-.34,1.37,8,8,0,0,1-6,12.06,7.19,7.19,0,0,1-1.77,0,7.84,7.84,0,0,1-3.84-1.5A8,8,0,0,1,10.43,4.16a1,1,0,1,0-.38-2,10,10,0,0,0-4,17.85,9.82,9.82,0,0,0,4.81,1.88A9.21,9.21,0,0,0,12,22a9.08,9.08,0,0,0,1.11-.07A10,10,0,0,0,20.58,6.86,1,1,0,0,0,19.21,6.51Z"/><path fill="#0C0E11" d="M17.88 6.2a1 1 0 0 0 .66-1.75 9.82 9.82 0 0 0-5.43-2.38 1 1 0 0 0-.21 2A7.83 7.83 0 0 1 17.22 6 1 1 0 0 0 17.88 6.2zM16.71 7.29a1 1 0 0 0-1.41 0l-8 8a1 1 0 1 0 1.41 1.41l8-8A1 1 0 0 0 16.71 7.29z"/><circle fill="#0C0E11" cx="9" cy="9" r="2"/><circle fill="#0C0E11" cx="15" cy="15" r="2"/></g></svg>