<svg xmlns="http://www.w3.org/2000/svg" viewBox="0 0 32 32"><g><path fill="#0C0E11" d="M12,30h0a3.48,3.48,0,0,0,2.47-1L29,14.38a3.53,3.53,0,0,0,1-3.18l-1-4.95a3.47,3.47,0,0,0-2.53-2.71L20.87,2A3.6,3.6,0,0,0,17.44,3L3,17.44a3.54,3.54,0,0,0,0,5L9.47,29A3.5,3.5,0,0,0,12,30ZM4.38,18.86,18.86,4.38A1.57,1.57,0,0,1,20,3.92a1.31,1.31,0,0,1,.39.05L26,5.47A1.51,1.51,0,0,1,27.1,6.63l.95,4.94A1.57,1.57,0,0,1,27.62,13L13.06,27.54A1.55,1.55,0,0,1,12,28h0a1.46,1.46,0,0,1-1.06-.44L4.35,21A1.53,1.53,0,0,1,4.38,18.86Z"/><path fill="#0C0E11" d="M13.65 23.74a1 1 0 0 0 1.42-1.41L9.63 16.89a1 1 0 0 0-1.41 0 1 1 0 0 0 0 1.42zM20.66 15a3.81 3.81 0 0 0 3.81-3.77A3.79 3.79 0 1 0 20.66 15zM19.47 9.53A1.76 1.76 0 0 1 20.73 9h0A1.71 1.71 0 0 1 22 9.5a1.74 1.74 0 0 1 .51 1.24A1.87 1.87 0 0 1 21.94 12a1.77 1.77 0 0 1-2.5 0 1.69 1.69 0 0 1-.5-1.24A1.78 1.78 0 0 1 19.47 9.53z"/></g></svg>